<svg id="8ab2ad2f-eae9-4ee9-8211-34e96e382a3b" data-name="Capa 1" xmlns="http://www.w3.org/2000/svg" viewBox="0 0 215.8 100"><title>synapsecoin</title><path d="M70.4,34.4q3.9-6.4,5.7-9.9c.5-.7.7-1.2.8-1.3a.6.6,0,0,1,.5-.2.9.9,0,0,1,.7.3,1.3,1.3,0,0,1,.4.7c0,.3-.2.5-.4.8-1.9,2.9-4.4,6.7-7.4,11.6l-3.5,5.9a30.7,30.7,0,0,1-3.1,4.3A6.5,6.5,0,0,1,62,48.2a5,5,0,0,1-2.3.5,3.6,3.6,0,0,1-1.9-.4,1.5,1.5,0,0,1-.7-1.2,1.1,1.1,0,0,1,.3-.8,1.3,1.3,0,0,1,.8-.3,2.9,2.9,0,0,1,1.4.5l1.1.3a2.7,2.7,0,0,0,1.7-.6,9.3,9.3,0,0,0,1.8-2l-2.4-4c-5.1-8.6-8.6-14.1-10.3-16.6H64.4a50,50,0,0,0,2.8,5.7A40.6,40.6,0,0,0,70.4,34.4Z" fill="#0071bc"/><path d="M90.3,23.6v3A20.8,20.8,0,0,1,95,23.9a11.5,11.5,0,0,1,4.4-.9,8.3,8.3,0,0,1,4.8,1.4,5,5,0,0,1,2,2.6,16.3,16.3,0,0,1,.6,5.2V47.4H96.5v-20c-.1-.3-.1-.6-.2-.8a1.4,1.4,0,0,0-1.4-.7,4.9,4.9,0,0,0-2.2.6,15.1,15.1,0,0,0-2.5,1.8V47.4H80V23.6Z" fill="#0071bc"/><path d="M125.6,32.9V30.2c0-1.9-.1-3-.1-3.4a2.1,2.1,0,0,0-.4-1.1c-.5-.9-1.6-1.3-3.4-1.3a8,8,0,0,0-6.4,2.8q-.9,1.2-1.5,1.2a1.4,1.4,0,0,1-1.2-1.2c0-.9,1.1-1.9,3.1-2.8a16,16,0,0,1,7.4-1.4c5,0,8.5.8,10.6,2.4a5.6,5.6,0,0,1,1.7,2.4,17.5,17.5,0,0,1,.4,4.7v8.7a19,19,0,0,0,.1,3.6,12.4,12.4,0,0,0,1,2.6H125.6V45.1a20.2,20.2,0,0,1-3.7,2.1,12.7,12.7,0,0,1-3.6.7,8.7,8.7,0,0,1-5.4-1.9,8.2,8.2,0,0,1-3.1-6.5,7.6,7.6,0,0,1,2.5-5.7,10.3,10.3,0,0,1,7.1-2.5,14.2,14.2,0,0,1,3.1.3A14.8,14.8,0,0,1,125.6,32.9Zm0,1.5a9.1,9.1,0,0,0-4-1.3,1.4,1.4,0,0,0-1.5,1,15.1,15.1,0,0,0-.2,3.1v5.2a8.8,8.8,0,0,0,.1,2.1c.1.7.6,1,1.4,1a4.1,4.1,0,0,0,2-.6,6.5,6.5,0,0,0,2.1-1.6Z" fill="#0071bc"/><path d="M140.4,23.6h10.3v2.8a14.8,14.8,0,0,1,3.7-2.6,7.9,7.9,0,0,1,3.8-.8,8.2,8.2,0,0,1,6.7,3.3,12,12,0,0,1,2.4,7.7,12,12,0,0,1-2.7,8.1,7.8,7.8,0,0,1-6.2,3,9.2,9.2,0,0,1-3.9-.9,15.3,15.3,0,0,1-3.9-2.7v6.9H140.4V23.6Zm10.3,4.8V39.8a12.2,12.2,0,0,0,2.6,2.2,4.3,4.3,0,0,0,2.1.8q.8,0,.9-.9c0-.2.1-1.2.1-2.9V28.3c0-1.3-.1-2-.1-2.3s-.4-.9-.8-.9a4,4,0,0,0-2.2.9A11.6,11.6,0,0,0,150.7,28.4Z" fill="#0071bc"/><path d="M170.2,43.3a2,2,0,0,1,1.1.7,8,8,0,0,0,2.9,1.8,9,9,0,0,0,3.4.7,2.1,2.1,0,0,0,1.2-.3,1,1,0,0,0,.3-.8,1.9,1.9,0,0,0-.5-1.2,21.9,21.9,0,0,0-2.3-2.8,62.8,62.8,0,0,1-5.6-7.1,7.2,7.2,0,0,1-1.3-3.9,5.9,5.9,0,0,1,.9-3.1,8.5,8.5,0,0,1,2.4-2.6,11.3,11.3,0,0,1,6-1.7,15.2,15.2,0,0,1,5.3,1.1c1.4.6,2.2,1.3,2.2,2a.5.5,0,0,1-.3.5l-.6.3a4.2,4.2,0,0,1-1.4-.8,7.5,7.5,0,0,0-4.7-1.7,2.3,2.3,0,0,0-1.3.3,1.2,1.2,0,0,0-.5,1,3.5,3.5,0,0,0,.9,1.9,34.6,34.6,0,0,0,3.4,3.8l3.1,3.4,1.4,1.9a8.2,8.2,0,0,1,1,4,6.2,6.2,0,0,1-3,5.4,10,10,0,0,1-6.1,1.8,13.3,13.3,0,0,1-7.1-2l-1.2-.9a1.3,1.3,0,0,1-.3-.8C169.5,43.6,169.7,43.4,170.2,43.3Z" fill="#0071bc"/><path d="M198.6,36.2v6.7a10.7,10.7,0,0,0,.2,2.5c.3.7,1,1,2,1a8.3,8.3,0,0,0,4.7-1.4,14.3,14.3,0,0,0,4-3.8l.7-1a.7.7,0,0,1,.6-.2l.5.2a.9.9,0,0,1,.3.7,4.6,4.6,0,0,1-1.4,2.5,14.3,14.3,0,0,1-4.4,3.2,12.9,12.9,0,0,1-5.2,1.3,10.9,10.9,0,0,1-7.6-3.2,11.7,11.7,0,0,1-2.9-4.5,12.7,12.7,0,0,1-.9-4.7A11.9,11.9,0,0,1,190,31a12.9,12.9,0,0,1,2.2-4,11.4,11.4,0,0,1,3.9-3,10.9,10.9,0,0,1,11.4,1.4c3.1,2.4,4.7,6,4.7,10.7H198.6Zm5.2-1.5V28.4c0-1.4-.1-2.2-.1-2.5a1.1,1.1,0,0,0-.3-.7c-.3-.6-1.1-.9-2.3-.9a2.2,2.2,0,0,0-2.2,1,9.1,9.1,0,0,0-.3,3.1v6.3h5.2Z" fill="#0071bc"/><path d="M68.7,51.8V80.4h1.8a11.6,11.6,0,0,0,4-.7,12.3,12.3,0,0,0,3.7-2.1,12,12,0,0,0,2.1-2.3,14.1,14.1,0,0,0,1.8-2.7c.2-.6.5-.8.8-.8s.7.2.7.6a6.2,6.2,0,0,1-1,2.2,20.9,20.9,0,0,1-2.2,2.8,13.8,13.8,0,0,1-6.1,3.7,15.3,15.3,0,0,1-4,.7,14.7,14.7,0,0,1-5.7-1.3,14.5,14.5,0,0,1-7-6.6,16.8,16.8,0,0,1-2-7.9A16.3,16.3,0,0,1,57.7,58a15.4,15.4,0,0,1,6.2-6.2,14,14,0,0,1,6.4-1.5,13.5,13.5,0,0,1,10,4.3c1.4,1.3,2,2.3,2,2.9a.4.4,0,0,1-.2.4c-.1.2-.2.2-.4.2s-.6-.3-1-.8a11.4,11.4,0,0,0-4.6-4.1,11.7,11.7,0,0,0-6-1.6Z" fill="#0071bc"/><path d="M96.2,56.6a10.8,10.8,0,0,1,6.2,1.9,11,11,0,0,1,4.1,4.9,14.1,14.1,0,0,1,1.3,5.8,12.5,12.5,0,0,1-.8,4.2,12,12,0,0,1-2,3.7,10.9,10.9,0,0,1-4.3,3.4,11.2,11.2,0,0,1-4.4.9A10.7,10.7,0,0,1,89.4,79a11.5,11.5,0,0,1-3.6-4.8,13.6,13.6,0,0,1-1.1-5.3,12.3,12.3,0,0,1,3.7-9A11,11,0,0,1,96.2,56.6ZM95.6,58V80h.9a9.8,9.8,0,0,0,5.3-1.7,9.9,9.9,0,0,0,3.7-4.4,11.2,11.2,0,0,0,1-4.8,10.8,10.8,0,0,0-3.6-8.5,9,9,0,0,0-6.3-2.7Z" fill="#0071bc"/><path d="M121.4,57.2V81H110.9V57.2Zm-5.3-7.7q5.4,0,5.4,3a2.5,2.5,0,0,1-1.4,2.3,7.7,7.7,0,0,1-4,.8c-3.4,0-5.1-1-5.1-3.1S112.7,49.6,116.1,49.5Z" fill="#0071bc"/><path d="M136.5,57.2v3a20.3,20.3,0,0,1,4.6-2.7,12.4,12.4,0,0,1,4.5-.9,7.6,7.6,0,0,1,4.8,1.4,5,5,0,0,1,2,2.6,16.9,16.9,0,0,1,.5,5.2V81H142.7V63.7a15,15,0,0,0-.1-2.7,1.9,1.9,0,0,0-.2-.8c-.2-.5-.6-.7-1.4-.7a4.8,4.8,0,0,0-2.1.6,11.9,11.9,0,0,0-2.5,1.8V81H126.2V57.2Z" fill="#0071bc"/><path d="M6.4,70.3c.8,0,1.7.5,2.8,1.7a23.4,23.4,0,0,0,7.9,4.4,25.9,25.9,0,0,0,9.5,1.9,5.1,5.1,0,0,0,3-.7,2.2,2.2,0,0,0,1-2,5.2,5.2,0,0,0-1.4-3.2c-.9-1.3-3-3.6-6.2-7.1C15.1,56.8,9.9,50.9,7.6,47.4a17.8,17.8,0,0,1-3.5-9.9,14.6,14.6,0,0,1,2.4-7.9,19.6,19.6,0,0,1,6.7-6.4,29.7,29.7,0,0,1,16.3-4.4,40.8,40.8,0,0,1,14.4,2.8c3.9,1.5,5.9,3.2,5.9,4.9a1.8,1.8,0,0,1-.7,1.5,2.1,2.1,0,0,1-1.6.7c-.7,0-2-.7-3.9-2a21.3,21.3,0,0,0-12.7-4.2,7.1,7.1,0,0,0-3.7.7,2.8,2.8,0,0,0-1.3,2.4c0,1.3.8,2.8,2.3,4.8s4.7,5.1,9.3,9.7,7.5,7.3,8.7,8.7a37.5,37.5,0,0,1,3.6,4.8,18.8,18.8,0,0,1,2.9,10c0,5.7-2.7,10.3-8.2,13.8s-10,4.3-16.6,4.3A38.4,38.4,0,0,1,8.6,76.9a14,14,0,0,1-3.4-2.5,2.8,2.8,0,0,1-.9-2A1.9,1.9,0,0,1,6.4,70.3Z" fill="#0071bc"/></svg>